<?xml version="1.0" standalone="no"?>
<!DOCTYPE svg PUBLIC "-//W3C//DTD SVG 20010904//EN"
 "http://www.w3.org/TR/2001/REC-SVG-20010904/DTD/svg10.dtd">
<svg version="1.0" xmlns="http://www.w3.org/2000/svg"
 width="280.000000pt" height="280.000000pt" viewBox="0 0 280.000000 280.000000"
 preserveAspectRatio="xMidYMid meet">
<metadata>
Created by potrace 1.14, written by Peter Selinger 2001-2017
</metadata>
<g transform="translate(0.000000,280.000000) scale(0.100000,-0.100000)"
fill="#000000" stroke="none">
<path d="M1145 2720 c-3 -5 -4 -14 0 -19 3 -5 1 -12 -4 -15 -5 -4 -13 -2 -16
4 -5 8 -11 7 -21 -1 -7 -6 -21 -8 -30 -5 -17 7 -47 -17 -36 -29 4 -5 -1 -5
-10 -2 -10 4 -18 2 -18 -5 0 -7 -4 -7 -14 1 -10 9 -16 8 -26 -4 -7 -8 -9 -15
-4 -15 5 0 2 -5 -6 -10 -8 -5 -23 -7 -32 -4 -10 3 -18 1 -18 -5 0 -6 -6 -10
-12 -8 -7 1 -12 -6 -10 -15 3 -20 -14 -24 -21 -5 -3 7 -6 5 -6 -5 -1 -10 -5
-18 -11 -18 -5 0 -7 -7 -4 -15 4 -11 2 -13 -9 -9 -8 3 -18 0 -23 -7 -5 -8 -3
-10 6 -4 9 5 11 4 6 -3 -4 -7 -14 -12 -22 -12 -9 0 -12 -5 -8 -12 5 -8 2 -9
-10 -5 -9 4 -15 3 -12 -2 3 -4 -2 -17 -10 -27 -9 -10 -12 -13 -8 -5 5 10 3 12
-5 7 -7 -5 -10 -15 -7 -23 4 -11 2 -13 -9 -9 -8 3 -15 0 -15 -7 0 -8 -4 -7
-10 3 -8 11 -10 3 -8 -30 l3 -45 45 -1 c51 -1 81 13 72 34 -4 12 -1 12 16 3
17 -9 22 -9 22 1 0 9 3 9 10 -2 9 -13 10 -13 10 0 0 13 1 13 10 0 7 -11 10
-11 10 -2 0 9 5 10 18 3 10 -5 24 -6 32 -1 8 5 22 4 32 -1 13 -7 18 -6 18 3 0
10 2 10 9 -1 7 -11 9 -11 14 0 4 11 6 10 6 -2 1 -9 13 -22 29 -29 15 -8 31
-16 36 -19 5 -2 6 2 1 9 -6 10 -4 12 9 7 10 -4 24 -7 32 -7 9 0 12 -4 9 -10
-3 -5 -1 -10 5 -10 6 0 9 -4 5 -9 -3 -5 0 -13 6 -17 7 -4 9 -3 5 4 -3 6 -2 13
4 17 5 3 10 1 10 -5 0 -6 4 -9 9 -5 14 8 73 -53 65 -67 -4 -7 -3 -8 4 -4 7 4
12 2 12 -3 0 -6 5 -11 11 -11 5 0 7 5 3 12 -4 7 -3 8 4 4 6 -4 8 -14 5 -23 -5
-12 -2 -15 10 -10 9 3 19 1 23 -5 5 -7 2 -8 -7 -3 -8 5 4 -9 27 -31 45 -43 75
-52 96 -26 9 11 10 14 1 8 -7 -4 -13 -2 -13 3 0 6 5 11 11 11 8 0 8 5 -1 15
-7 8 -10 16 -6 16 3 1 10 2 15 3 6 0 22 15 38 31 15 17 37 37 47 45 18 13 19
13 11 0 -7 -13 -6 -13 7 -2 13 10 17 10 21 0 4 -8 6 -7 6 5 1 9 9 17 19 17 15
0 15 2 2 11 -12 9 -11 10 8 6 12 -3 22 -1 22 4 0 5 -5 9 -10 9 -7 0 -6 5 2 13
7 8 29 12 52 11 42 -3 70 11 59 29 -3 6 -1 7 5 3 7 -4 12 -1 12 6 0 9 3 9 10
-2 7 -11 10 -11 10 -2 0 10 5 10 20 2 14 -7 20 -7 20 0 0 5 5 10 11 10 5 0 8
-4 5 -8 -2 -4 20 -5 49 -2 30 3 61 2 70 -2 10 -6 15 -5 15 4 0 10 2 10 9 -1 5
-8 14 -10 21 -6 9 5 11 4 6 -3 -4 -7 -2 -12 4 -12 6 0 8 -5 4 -11 -4 -7 -1
-10 7 -7 8 3 22 1 33 -4 13 -7 16 -7 11 1 -4 8 3 10 24 6 30 -5 31 -4 31 35 0
36 -2 40 -26 40 -14 0 -23 4 -19 10 3 6 1 10 -5 10 -6 0 -8 5 -5 10 3 6 1 10
-5 10 -7 0 -25 11 -42 25 -16 14 -24 25 -17 25 8 0 2 8 -11 17 -14 9 -28 21
-32 27 -3 5 -20 10 -37 11 -31 1 -57 15 -30 15 10 1 8 5 -5 15 -23 17 -40 20
-31 5 3 -6 -1 -7 -9 -4 -8 3 -18 14 -21 25 -4 10 -9 18 -13 18 -23 -4 -74 2
-69 7 11 11 -23 36 -40 30 -23 -9 -46 13 -32 30 10 12 -30 14 -249 14 -163 0
-263 -4 -267 -10z"/>
<path d="M2017 2499 c7 -7 15 -10 18 -7 3 3 -2 9 -12 12 -14 6 -15 5 -6 -5z"/>
<path d="M814 2306 c-3 -13 -14 -26 -25 -29 -11 -3 -16 -1 -13 5 4 6 -1 6 -13
-1 -14 -7 -23 -7 -31 1 -29 29 -32 -7 -32 -462 0 -424 1 -459 17 -453 12 5 14
3 8 -8 -7 -12 -6 -12 7 -1 9 7 19 9 22 4 6 -10 36 -9 54 2 7 4 12 2 12 -6 0
-10 2 -10 9 1 6 9 10 10 16 2 5 -9 10 -9 20 -1 10 8 14 7 18 -2 4 -10 6 -10 6
1 1 10 4 11 15 2 10 -8 16 -9 21 -1 3 5 11 10 16 10 6 0 7 -5 3 -11 -5 -8 -1
-8 14 0 14 8 23 8 27 1 5 -8 11 -7 21 1 11 9 14 8 14 -2 0 -11 2 -11 10 1 9
13 11 13 20 0 7 -11 10 -11 10 -2 0 8 5 10 12 6 18 -12 48 -12 55 -1 3 5 9 3
14 -4 7 -12 9 -12 9 0 0 10 3 11 14 2 11 -9 16 -9 21 0 6 8 10 7 16 -2 7 -12
9 -12 9 0 0 10 3 11 14 2 10 -8 16 -9 21 -1 3 5 11 10 16 10 6 0 7 -6 3 -12
-5 -9 -2 -9 9 1 14 11 17 11 17 0 0 -12 2 -12 9 -1 11 17 21 17 32 0 5 -7 9
-8 9 -2 0 6 7 11 15 11 8 0 15 -5 15 -11 0 -6 4 -5 9 2 4 8 12 14 16 14 4 0
12 -6 16 -14 5 -7 9 -8 9 -2 0 12 29 12 49 -1 10 -5 12 -4 7 3 -10 16 7 15 23
0 11 -10 13 -10 7 0 -9 15 10 16 19 2 5 -8 11 -8 20 0 10 8 14 7 18 -2 4 -10
6 -10 6 1 1 11 4 11 18 0 11 -10 14 -10 9 -1 -4 6 -3 12 1 12 5 0 15 -6 22
-12 11 -10 13 -10 7 0 -9 15 10 16 19 2 5 -8 11 -8 20 0 10 8 14 7 18 -2 4
-10 6 -10 6 1 1 11 4 11 18 0 11 -10 14 -10 9 -1 -4 6 -3 12 3 12 5 0 13 -5
16 -10 5 -8 11 -7 21 1 11 9 14 8 14 -2 0 -12 2 -12 9 -1 4 8 12 14 16 14 4 0
12 -6 16 -14 5 -7 9 -8 9 -2 0 14 30 14 30 0 0 -6 4 -5 9 2 4 8 12 14 16 14 4
0 12 -6 16 -14 5 -7 9 -8 9 -3 0 6 16 11 35 11 23 1 32 -2 28 -10 -3 -6 0 -5
8 2 7 6 17 12 22 12 4 0 5 -6 1 -12 -5 -9 -2 -9 9 1 14 11 17 11 17 0 0 -12 2
-12 9 0 6 9 10 10 16 2 5 -9 10 -9 21 0 11 9 14 9 14 -1 0 -10 3 -10 15 0 13
11 15 74 15 459 0 245 -4 451 -8 456 -10 14 -42 15 -42 1 0 -6 -5 -4 -11 4 -8
12 -12 12 -16 2 -4 -10 -9 -9 -20 5 -9 11 -12 12 -8 3 4 -10 2 -9 -8 2 -8 10
-18 14 -22 10 -5 -4 -6 0 -2 9 6 17 -17 18 -63 4 -17 -6 -21 -4 -14 6 6 11 5
12 -7 2 -12 -10 -18 -10 -27 -1 -9 9 -12 9 -12 -1 0 -10 -3 -11 -14 -2 -11 9
-16 9 -21 0 -6 -8 -10 -7 -16 2 -7 12 -9 12 -9 0 0 -11 -3 -11 -17 0 -13 11
-17 11 -20 1 -3 -6 -9 -10 -14 -7 -5 4 -6 -2 -2 -11 4 -12 3 -15 -5 -10 -7 4
-12 2 -12 -4 0 -6 -4 -8 -10 -5 -5 3 -10 1 -10 -5 0 -8 -6 -8 -20 0 -15 8 -20
8 -20 -2 0 -9 -3 -9 -10 2 -7 11 -10 11 -10 2 0 -7 -4 -10 -10 -7 -6 4 -7 -1
-3 -11 5 -13 3 -16 -10 -11 -9 3 -19 1 -23 -5 -5 -7 -2 -8 7 -3 8 4 -1 -6 -20
-23 -18 -17 -30 -35 -27 -40 3 -5 -2 -9 -12 -8 -9 0 -18 -2 -19 -7 -5 -15 -28
-35 -35 -30 -5 2 -9 1 -9 -4 -9 -62 -8 -74 4 -67 7 5 6 1 -2 -10 -13 -15 -13
-19 0 -27 12 -7 12 -9 0 -9 -8 0 -11 -3 -8 -7 4 -3 1 -13 -6 -21 -8 -11 -8
-14 0 -9 6 4 14 3 18 -3 3 -5 2 -10 -2 -10 -5 0 -9 -9 -10 -20 -1 -12 3 -18 9
-14 7 4 7 0 -1 -13 -6 -11 -9 -22 -8 -24 1 -2 -11 -17 -27 -34 -16 -16 -26
-23 -22 -15 4 8 0 6 -8 -4 -10 -13 -16 -15 -16 -7 0 11 -3 11 -17 0 -15 -12
-16 -12 -8 1 7 13 6 13 -7 2 -13 -10 -17 -10 -22 3 -3 9 -10 14 -14 11 -5 -3
-9 1 -9 9 0 8 5 12 10 8 5 -3 4 4 -2 16 -9 16 -9 21 1 21 9 0 9 3 -2 10 -8 5
-10 10 -4 10 8 0 9 13 4 40 -5 25 -4 40 3 40 5 0 3 8 -4 17 -10 11 -10 14 -1
9 6 -4 12 -5 12 -2 0 14 -35 76 -42 76 -5 0 -6 5 -3 10 4 6 3 10 -2 9 -20 -3
-34 2 -28 11 3 6 2 10 -3 10 -5 0 -8 13 -7 30 1 16 0 29 -4 28 -25 -3 -32 4
-26 25 4 13 3 17 -2 10 -7 -10 -15 -9 -36 2 -15 8 -25 10 -21 4 3 -6 -3 -5
-15 3 -12 7 -21 18 -21 25 0 7 -5 13 -11 13 -5 0 -7 -5 -3 -12 5 -7 3 -8 -7
-3 -19 12 -49 14 -49 3 0 -5 -6 -3 -14 4 -8 7 -13 15 -11 18 2 3 -3 11 -11 18
-9 8 -14 9 -14 2 0 -6 -5 -8 -12 -4 -17 11 -59 11 -65 1 -3 -5 -9 -3 -14 4 -7
12 -9 12 -9 0 0 -10 -3 -11 -14 -2 -10 9 -16 9 -21 1 -5 -8 -11 -7 -23 2 -9 8
-13 8 -9 2 4 -7 0 -14 -8 -17 -9 -4 -12 -1 -8 9 3 7 2 14 -1 14 -3 0 -8 -11
-12 -24z m217 -183 c7 -7 0 -14 -19 -22 -30 -13 -53 -12 -63 3 -4 5 -10 -1
-14 -13 -3 -12 -20 -28 -36 -36 -30 -16 -41 -32 -14 -22 11 5 12 1 5 -18 -7
-18 -6 -25 3 -26 9 0 9 -2 0 -5 -7 -3 -9 -12 -6 -20 3 -9 -1 -14 -12 -14 -11
0 -15 5 -12 15 4 8 2 17 -2 19 -5 3 -8 23 -7 43 1 30 5 37 19 35 11 -2 17 4
17 17 0 15 5 19 21 16 14 -3 19 0 16 9 -3 8 -1 18 4 23 12 12 87 9 100 -4z
m774 7 c-8 12 15 13 34 1 9 -6 10 -11 2 -15 -6 -4 -9 -11 -7 -15 3 -4 -4 -8
-15 -8 -11 -1 -17 2 -14 8 8 12 -9 11 -22 -2 -7 -7 -12 -3 -15 14 -4 23 -3 25
19 16 16 -6 22 -5 18 1z m-730 -59 c-5 -2 -13 -9 -17 -15 -5 -6 -8 -1 -8 12 0
12 -5 22 -11 22 -5 0 -7 -5 -3 -12 5 -7 3 -8 -6 -3 -10 6 -9 11 4 21 15 10 21
9 35 -4 10 -10 12 -19 6 -21z m658 -28 c-2 -39 3 -63 17 -86 11 -18 20 -28 20
-24 0 5 5 5 12 1 7 -5 5 -12 -8 -22 -18 -13 -17 -14 6 -6 14 4 35 8 48 8 25 0
28 6 11 23 -9 9 -5 11 14 9 18 -2 24 1 20 10 -3 8 1 14 8 14 11 0 11 3 -1 10
-8 5 -10 10 -3 10 9 0 11 26 3 38 -10 12 6 72 19 72 13 0 28 -48 19 -63 -5
-10 -4 -18 2 -22 8 -5 7 -11 -1 -22 -10 -12 -10 -16 2 -24 11 -7 11 -9 0 -9
-11 0 -11 -3 0 -17 10 -11 10 -14 2 -9 -8 4 -13 1 -13 -8 0 -9 -4 -16 -10 -16
-5 0 -10 6 -10 13 0 7 -3 8 -8 2 -4 -5 -16 -15 -27 -22 -11 -6 -19 -16 -18
-22 4 -13 -19 -10 -29 4 -5 6 -8 5 -8 -2 0 -7 -5 -13 -11 -13 -5 0 -7 5 -4 10
3 6 0 10 -8 10 -22 0 -45 33 -41 60 4 24 3 24 -11 6 -8 -11 -15 -14 -15 -7 0
7 -4 9 -10 6 -14 -9 -13 8 2 23 7 7 8 12 2 12 -12 0 -13 45 -1 56 4 4 2 13 -4
21 -9 10 -8 13 0 13 7 0 10 4 6 9 -3 6 3 9 12 8 15 -1 18 -9 16 -54z m-623 2
c-5 -6 -5 -17 0 -25 6 -9 3 -18 -7 -25 -13 -10 -13 -14 -3 -20 9 -6 11 -4 5 5
-5 8 -4 11 3 6 6 -4 9 -13 6 -21 -4 -8 -10 -12 -15 -9 -5 3 -9 0 -9 -5 0 -6
-5 -11 -12 -11 -6 0 -8 3 -5 7 4 3 1 13 -6 21 -10 13 -9 14 2 7 11 -6 13 -4 8
8 -4 10 -1 17 6 17 7 0 5 5 -5 10 -24 15 -12 48 17 46 15 0 20 -5 15 -11z
m-48 -114 c-3 -23 -7 -27 -16 -18 -14 12 -17 39 -4 31 4 -3 8 0 8 5 0 6 4 11
8 11 5 0 7 -13 4 -29z m-132 8 c0 -5 -4 -7 -10 -4 -6 4 -7 -1 -3 -11 4 -12 2
-15 -8 -12 -23 8 -23 38 0 38 12 0 21 -5 21 -11z m74 -46 c4 -11 2 -13 -9 -9
-8 3 -15 0 -16 -7 0 -9 -2 -9 -6 1 -2 6 -10 10 -16 6 -7 -3 -4 1 5 9 10 8 15
17 11 21 -4 4 0 4 9 1 9 -4 19 -13 22 -22z"/>
<path d="M788 1259 c-2 -7 -16 -13 -30 -13 -15 -1 -24 3 -21 8 4 5 -1 7 -11 3
-10 -4 -20 -7 -22 -7 -6 0 -5 -46 2 -65 5 -13 8 -14 15 -3 7 10 9 9 9 -5 0
-12 4 -16 13 -11 7 5 6 0 -3 -11 -11 -14 -11 -17 -1 -11 10 7 12 3 6 -13 -5
-15 -2 -21 9 -21 9 0 16 -5 16 -11 0 -5 5 -7 12 -3 7 5 8 3 2 -7 -5 -8 -9 -18
-9 -24 -1 -12 34 -45 47 -45 4 0 8 -5 8 -11 0 -5 -4 -7 -10 -4 -5 3 -10 1 -10
-4 0 -15 13 -14 29 2 10 10 11 8 5 -7 -6 -15 -4 -17 6 -11 9 5 11 4 6 -4 -4
-6 -2 -19 5 -27 10 -12 9 -13 -7 -7 -16 6 -17 4 -7 -9 7 -8 9 -19 5 -24 -4 -4
0 -3 10 4 17 14 34 1 23 -18 -3 -5 -2 -10 3 -10 6 0 8 -9 5 -20 -4 -14 0 -20
11 -20 10 0 14 -4 11 -10 -3 -5 1 -10 10 -10 9 0 14 -4 11 -9 -3 -5 4 -11 15
-14 18 -5 19 -8 9 -27 -10 -18 -9 -21 1 -15 9 6 11 3 6 -8 -3 -9 -1 -19 5 -23
7 -5 8 -2 3 7 -8 12 -6 12 8 0 9 -7 15 -17 12 -21 -3 -5 1 -11 7 -13 10 -4 10
-6 0 -6 -8 -1 -4 -10 10 -24 13 -12 17 -16 8 -9 -33 24 -30 11 3 -18 35 -30
54 -39 41 -19 -5 8 -1 8 14 0 15 -8 22 -8 25 2 3 6 6 8 6 2 1 -10 182 -11 208
-1 7 3 13 1 13 -4 0 -6 9 -6 25 0 15 6 26 6 30 0 4 -6 11 -10 16 -10 6 0 7 6
3 13 -5 8 -2 8 9 -2 14 -11 17 -11 17 0 0 10 3 10 11 2 8 -8 20 -8 35 -3 15 6
26 5 30 -1 4 -8 9 -7 15 2 7 11 9 11 9 1 0 -10 5 -10 21 -1 15 8 19 8 15 0 -4
-6 -3 -11 3 -11 5 0 12 6 14 13 4 8 6 9 6 0 1 -8 10 -9 31 -3 21 6 30 5 30 -3
0 -7 4 -6 10 3 8 13 10 13 10 1 0 -12 3 -12 12 -3 8 8 15 9 25 1 10 -9 13 -7
13 7 0 14 2 16 9 6 6 -10 10 -7 15 12 3 14 11 25 17 23 7 -1 14 4 17 12 3 8 0
11 -7 7 -18 -11 -1 23 26 53 14 14 30 26 36 26 7 0 12 15 13 33 0 17 3 32 7
32 4 0 14 5 21 12 10 10 11 15 2 20 -7 5 -6 8 4 8 13 0 13 1 0 10 -11 7 -11
10 -2 10 7 0 11 4 7 9 -3 5 4 12 15 16 11 4 18 11 15 16 -4 5 1 9 10 9 9 0 13
5 10 10 -3 5 1 10 11 10 13 0 15 6 10 31 -5 25 -3 30 9 25 10 -3 17 3 21 19 3
14 10 22 15 19 5 -3 9 0 9 6 0 6 4 9 9 6 5 -3 12 1 15 10 3 8 2 12 -4 9 -6 -3
-10 1 -10 10 0 10 5 13 13 9 7 -5 7 -2 -2 10 -8 9 -10 16 -5 15 19 -3 49 3 37
8 -7 2 -13 10 -13 16 0 5 3 7 7 4 3 -4 12 1 19 11 9 11 13 13 14 4 0 -32 20 3
20 36 0 34 -2 37 -30 38 -19 1 -27 -3 -23 -10 4 -6 -6 -3 -21 8 -16 10 -25 12
-21 6 6 -10 1 -11 -19 -6 -20 5 -26 4 -20 -5 5 -8 3 -9 -7 -4 -22 14 -120 15
-113 1 3 -6 -1 -3 -9 7 -10 12 -16 14 -19 6 -2 -7 -16 -13 -30 -13 -15 -1 -24
2 -21 7 2 4 -8 5 -23 1 -19 -5 -25 -4 -20 4 5 8 2 10 -8 6 -9 -3 -13 -11 -9
-17 4 -6 1 -7 -8 -1 -22 13 -100 14 -93 0 3 -6 -1 -3 -9 7 -10 12 -16 14 -19
6 -2 -7 -16 -13 -30 -13 -15 -1 -24 2 -21 7 2 4 -8 5 -23 1 -19 -5 -25 -4 -20
4 5 8 2 10 -8 6 -9 -3 -13 -11 -9 -17 4 -6 1 -7 -8 -1 -22 13 -100 14 -93 0 3
-6 -1 -3 -9 7 -10 12 -16 14 -19 6 -2 -7 -16 -13 -30 -13 -15 -1 -24 2 -21 7
2 4 -8 5 -23 1 -19 -5 -25 -4 -20 4 5 8 2 10 -8 6 -9 -3 -13 -11 -9 -17 4 -6
1 -7 -8 -1 -22 13 -100 14 -93 0 3 -6 -1 -3 -9 7 -10 12 -16 14 -19 6 -2 -7
-16 -13 -30 -13 -15 -1 -24 2 -21 7 2 4 -8 5 -23 1 -19 -5 -25 -4 -20 4 5 8 2
10 -8 6 -9 -3 -13 -11 -10 -16 5 -7 1 -7 -11 -1 -10 6 -27 8 -38 5 -13 -3 -18
-1 -13 6 5 8 2 10 -8 6 -9 -3 -13 -11 -9 -17 4 -6 1 -7 -8 -1 -22 13 -100 14
-93 0 3 -6 -1 -3 -9 7 -10 12 -16 14 -19 6z"/>
<path d="M1105 559 c4 -5 10 -7 15 -4 5 3 11 1 15 -4 6 -10 -27 -7 -45 4 -6 3
-10 1 -10 -5 0 -6 -5 -8 -12 -4 -9 5 -9 3 1 -9 7 -9 17 -14 22 -11 5 3 6 -2 3
-11 -4 -9 -3 -15 2 -14 5 1 16 1 24 0 13 -1 13 -2 0 -11 -12 -8 -11 -10 7 -10
26 0 38 -15 22 -26 -8 -5 -9 -3 -4 6 6 9 4 11 -4 5 -9 -5 -9 -11 -3 -17 6 -6
8 -17 5 -26 -4 -9 -2 -13 4 -9 6 4 18 0 27 -9 13 -12 14 -20 5 -36 -8 -15 -8
-19 0 -14 6 4 11 0 11 -9 0 -9 5 -13 10 -10 6 3 10 1 10 -5 0 -6 5 -8 12 -4 8
5 9 2 5 -10 -5 -13 -1 -19 12 -23 13 -3 18 -12 16 -34 -1 -16 1 -27 5 -24 4 3
11 -2 14 -11 3 -8 10 -13 15 -10 5 3 8 -10 6 -29 -2 -20 1 -33 6 -30 5 4 9 1
9 -5 0 -7 6 -10 14 -7 10 4 13 -1 10 -16 -2 -12 -2 -16 2 -10 8 18 38 -13 30
-32 -4 -12 4 -15 35 -15 22 0 38 4 34 9 -3 5 0 13 6 17 8 4 7 9 -2 15 -11 7
-11 9 1 9 13 0 13 1 0 10 -11 7 -11 10 -2 10 8 0 10 5 6 12 -5 8 -2 8 10 -1
15 -12 17 -12 14 0 -2 8 3 13 10 11 9 -2 11 2 6 10 -12 19 -13 38 -3 38 6 0 7
4 4 10 -4 6 1 7 12 3 10 -3 15 -2 11 2 -8 9 32 42 45 37 4 -1 3 7 -3 18 -10
19 1 60 16 60 3 0 2 -6 -2 -12 -6 -10 -4 -10 8 0 9 7 14 25 13 42 -2 18 4 35
14 42 15 12 15 11 1 -6 -14 -18 -14 -18 6 -6 14 9 20 20 17 34 -3 13 -1 17 4
10 5 -8 14 -5 28 9 11 11 13 16 5 12 -13 -8 -13 -7 -1 8 11 14 11 17 0 17 -8
0 -6 7 7 19 10 10 22 17 27 14 4 -2 7 3 7 13 0 11 -6 15 -20 11 -11 -3 -22 -1
-25 4 -3 4 -13 5 -22 2 -12 -5 -14 -3 -8 8 8 12 6 12 -9 0 -14 -12 -19 -12
-26 -2 -6 11 -9 11 -13 0 -5 -12 -7 -12 -15 0 -8 11 -10 11 -14 0 -4 -12 -8
-11 -23 1 -10 8 -16 10 -12 4 4 -7 -2 -12 -18 -11 -14 0 -25 5 -25 11 0 7 -3
8 -8 1 -10 -16 -54 -17 -45 -2 4 7 -1 6 -11 -2 -14 -12 -19 -12 -26 -2 -6 11
-8 11 -12 0 -4 -12 -8 -11 -23 1 -10 8 -16 10 -12 4 4 -7 -2 -11 -18 -11 -14
0 -22 4 -18 10 4 6 1 7 -8 1 -19 -12 -33 -12 -41 1 -5 6 -8 5 -8 -3 0 -10 -5
-10 -22 -1 -22 12 -22 11 -8 -7 15 -18 14 -18 -12 -1 -17 10 -29 13 -33 7 -4
-6 -11 -8 -16 -5 -17 11 -50 14 -44 4z"/>
</g>
</svg>
